<?xml version="1.0" encoding="utf-8"?>
<!-- Generator: Adobe Illustrator 27.1.1, SVG Export Plug-In . SVG Version: 6.00 Build 0)  -->
<svg version="1.1" id="Layer_1" xmlns="http://www.w3.org/2000/svg" xmlns:xlink="http://www.w3.org/1999/xlink" x="0px" y="0px"
	 viewBox="0 0 1080 1080" style="enable-background:new 0 0 1080 1080;" xml:space="preserve">
<style type="text/css">
	.st0{fill:#515252;}
	.st1{fill:#D17B45;}
</style>
<g>
	<g>
		<path class="st0" d="M142.08,550.54c-5.12-2.58-9.64-6.65-13.56-12.19l3.16-2.15c3.35,4.88,7.39,8.56,12.12,11.05
			c4.73,2.49,9.59,3.73,14.56,3.73c5.45,0,10.21-1.58,14.27-4.73c4.06-3.16,6.62-7.6,7.67-13.34c0.19-1.34,0.29-2.3,0.29-2.87
			c0-4.68-1.89-9.2-5.67-13.56c-3.78-4.35-8.82-7.91-15.13-10.69c-1.34-0.67-2.15-1.05-2.44-1.15c-4.69-2.2-8.85-4.45-12.48-6.74
			c-3.64-2.29-6.93-5.43-9.9-9.4c-2.97-3.97-4.45-8.58-4.45-13.84c0-6.22,2.34-11.55,7.03-15.99c4.68-4.45,10.42-7.29,17.21-8.54
			c2.87-0.48,5.26-0.72,7.17-0.72c5.45,0,10.11,1.22,13.99,3.66c3.87,2.44,6.62,5.52,8.25,9.25l-3.59,1.58
			c-1.63-3.73-3.97-6.55-7.03-8.46c-3.06-1.91-6.5-2.87-10.33-2.87c-3.83,0-7.51,0.91-11.05,2.73c-3.54,1.82-6.43,4.42-8.68,7.82
			c-2.25,3.4-3.37,7.29-3.37,11.69c0,4.3,1.79,8.06,5.38,11.26c3.59,3.21,8.92,6.43,15.99,9.68l2.29,1.15
			c5.26,2.39,9.66,4.69,13.2,6.89c3.54,2.2,6.62,5.07,9.25,8.61c2.63,3.54,3.94,7.75,3.94,12.62c0,6.6-2.22,12.5-6.67,17.72
			c-4.45,5.21-10.31,8.78-17.57,10.69c-2.01,0.57-4.78,0.91-8.32,1C152.38,554.42,147.19,553.13,142.08,550.54z"/>
		<path class="st0" d="M229.22,449.84h9.75v49.06h42.75v-49.06h9.75v103h-9.75v-50.06h-42.75v50.06h-9.75V449.84z"/>
		<path class="st0" d="M349.79,550.61c-5.5-2.53-9.85-6.22-13.05-11.05c-3.21-4.83-4.81-10.59-4.81-17.29v-72.44h9.61v69.43
			c0,6.31,1.17,11.72,3.51,16.21c2.34,4.5,5.52,7.89,9.54,10.18c4.02,2.29,8.51,3.44,13.48,3.44c8.22,0,15.16-2.37,20.8-7.1
			c5.64-4.73,8.46-12.31,8.46-22.74v-69.43h3.87v72.73c0,10.04-3.01,17.86-9.04,23.45c-6.02,5.59-14.06,8.39-24.1,8.39
			C361.38,554.42,355.29,553.15,349.79,550.61z"/>
		<path class="st0" d="M441.67,449.84h29.69c7.55,0,14.51,2.25,20.87,6.74c6.36,4.5,11.38,10.64,15.06,18.43
			c3.68,7.8,5.52,16.42,5.52,25.89c0,9.47-1.86,18.17-5.59,26.11c-3.73,7.94-8.75,14.23-15.06,18.86
			c-6.31,4.64-13.25,6.96-20.8,6.96h-29.69V449.84z M471.36,549.11c5.64,0,10.9-2.34,15.78-7.03c4.88-4.68,8.77-10.76,11.69-18.22
			c2.92-7.46,4.38-15.11,4.38-22.95c0-7.75-1.46-15.28-4.38-22.59c-2.92-7.32-6.81-13.24-11.69-17.79
			c-4.88-4.54-10.14-6.81-15.78-6.81h-19.94v95.39H471.36z"/>
		<path class="st0" d="M548.97,449.84h9.75v49.06h42.75v-49.06h9.75v103h-9.75v-50.06h-42.75v50.06h-9.75V449.84z"/>
		<path class="st0" d="M675.2,502.34l-26.39-52.5h10.9l23.67,47.05l23.81-47.05h4.3l-26.54,52.5v50.49h-9.75V502.34z"/>
		<path class="st0" d="M766.93,550.61c-5.5-2.53-9.85-6.22-13.05-11.05c-3.21-4.83-4.81-10.59-4.81-17.29v-72.44h9.61v69.43
			c0,6.31,1.17,11.72,3.51,16.21c2.34,4.5,5.52,7.89,9.54,10.18c4.02,2.29,8.51,3.44,13.48,3.44c8.22,0,15.16-2.37,20.8-7.1
			c5.64-4.73,8.46-12.31,8.46-22.74v-69.43h3.87v72.73c0,10.04-3.01,17.86-9.04,23.45c-6.02,5.59-14.06,8.39-24.1,8.39
			C778.53,554.42,772.43,553.15,766.93,550.61z"/>
		<path class="st0" d="M870,449.84l35.86,97.69l36.01-97.69h9.61v103.14h-9.61v-91.95l-33.71,91.81h-10.62l-33.42-90.95v90.95h-3.87
			v-103H870z"/>
	</g>
	<g>
		<path class="st1" d="M229.2,630.04h-3.42v-23.29h-9.71v-2.98h22.74v2.98h-9.6V630.04z"/>
		<path class="st1" d="M277.82,630.04h-3.42v-12.47h-13.69v12.47h-3.42v-26.27h3.42v10.82h13.69v-10.82h3.42V630.04z"/>
		<path class="st1" d="M314.35,630.04h-15.56v-26.27h15.56v2.98h-12.14v7.95h10.82v2.98h-10.82v9.38h12.14V630.04z"/>
		<path class="st1" d="M372.52,630.04h-3.42v-23.29h-9.71v-2.98h22.74v2.98h-9.6V630.04z"/>
		<path class="st1" d="M420.59,630.04h-3.81l-3.48-8.78h-10.54l-3.42,8.78h-3.75l11.04-26.66h2.98L420.59,630.04z M411.98,618.28
			l-3.86-10.93l-4.08,10.93H411.98z"/>
		<path class="st1" d="M454.69,622.86c0,2.28-0.91,4.13-2.73,5.55c-1.82,1.42-4.09,2.12-6.82,2.12c-2.91,0-5.61-0.79-8.11-2.37
			l1.49-3.15c2.1,1.58,4.38,2.37,6.84,2.37c1.8,0,3.22-0.39,4.25-1.19c1.03-0.79,1.55-1.85,1.55-3.17c0-2.21-1.77-3.88-5.3-5.02
			c-5.19-1.66-7.78-4.19-7.78-7.62c0-2.06,0.81-3.76,2.43-5.1c1.62-1.34,3.73-2.01,6.35-2.01c2.61,0,4.87,0.59,6.79,1.77l-1.49,2.76
			c-1.84-0.92-3.62-1.38-5.35-1.38c-1.58,0-2.86,0.36-3.84,1.08c-0.98,0.72-1.46,1.59-1.46,2.62c0,2.02,1.77,3.61,5.32,4.75
			c2.88,0.92,4.91,1.99,6.1,3.2C454.1,619.27,454.69,620.87,454.69,622.86z"/>
		<path class="st1" d="M484.94,630.04h-3.42v-23.29h-9.71v-2.98h22.74v2.98h-9.6V630.04z"/>
		<path class="st1" d="M528.59,630.04h-15.56v-26.27h15.56v2.98h-12.14v7.95h10.82v2.98h-10.82v9.38h12.14V630.04z"/>
		<path class="st1" d="M600.55,616.96c0,3.86-1.2,7.1-3.59,9.71s-5.48,3.92-9.27,3.92c-3.79,0-6.88-1.31-9.27-3.92
			c-2.39-2.61-3.59-5.85-3.59-9.71c0-3.86,1.2-7.11,3.59-9.74c2.39-2.63,5.48-3.95,9.27-3.95c3.79,0,6.88,1.32,9.27,3.95
			C599.36,609.85,600.55,613.09,600.55,616.96z M597.13,616.93c0-3.02-0.87-5.56-2.59-7.61c-1.73-2.05-4.01-3.07-6.84-3.07
			c-2.83,0-5.11,1.02-6.84,3.07c-1.73,2.05-2.59,4.58-2.59,7.61c0,3.03,0.86,5.56,2.59,7.61s4.01,3.07,6.84,3.07
			c2.83,0,5.11-1.02,6.84-3.07S597.13,619.95,597.13,616.93z"/>
		<path class="st1" d="M623.62,630.04h-3.42v-26.27h16.11v2.98h-12.69v8.22h11.92v2.98h-11.92V630.04z"/>
		<path class="st1" d="M700.72,611.33c0,2.54-1.03,4.59-3.08,6.15c-2.05,1.56-4.75,2.35-8.12,2.35c-0.85,0-1.77-0.05-2.77-0.17
			v10.38h-3.42v-25.88c2.65-0.44,4.98-0.66,7.01-0.66c3.24,0,5.78,0.73,7.62,2.18C699.8,607.12,700.72,609.01,700.72,611.33z
			 M697.3,611.49c0-3.35-2.34-5.02-7.03-5.02c-1.26,0-2.44,0.06-3.51,0.17v9.88c1.26,0.22,2.32,0.33,3.18,0.33
			C694.84,616.85,697.3,615.06,697.3,611.49z"/>
		<path class="st1" d="M741.39,618.83c0,7.8-3.51,11.7-10.54,11.7c-7.03,0-10.54-3.9-10.54-11.7v-15.07h3.53v15.07
			c0,5.81,2.34,8.72,7.01,8.72c4.67,0,7.01-2.91,7.01-8.72v-15.07h3.53V618.83z"/>
		<path class="st1" d="M780.58,630.04h-3.48c-1-7.62-3.29-11.42-6.88-11.42h-4.44v11.42h-3.42v-25.77c2.65-0.48,5.02-0.72,7.12-0.72
			c3.13,0,5.61,0.66,7.45,1.98s2.76,3.12,2.76,5.39c0,3-1.44,5.17-4.3,6.49c1.36,0.92,2.42,2.26,3.17,4.03
			S779.99,626.06,780.58,630.04z M776.27,611.11c0-3.05-2.28-4.58-6.84-4.58c-1.47,0-2.69,0.05-3.64,0.17v9.05h4.25
			C774.19,615.74,776.27,614.2,776.27,611.11z"/>
		<path class="st1" d="M803.04,630.04h-3.42v-26.27h3.42V630.04z"/>
		<path class="st1" d="M834.66,630.04h-3.42v-23.29h-9.71v-2.98h22.74v2.98h-9.6V630.04z"/>
		<path class="st1" d="M872.68,630.04h-3.42v-11.48l-9.6-14.79h4.03l7.29,11.81l7.23-11.81h3.97l-9.49,14.74V630.04z"/>
	</g>
</g>
</svg>
